<?xml version="1.0" encoding="UTF-8" standalone="no"?>
<!-- Created with Inkscape (http://www.inkscape.org/) -->

<svg
   version="1.1"
   id="svg1"
   width="1173"
   height="2085"
   viewBox="0 0 1173 2085"
   sodipodi:docname="0000x1kg.svg"
   xml:space="preserve"
   inkscape:version="1.3.2 (091e20e, 2023-11-25, custom)"
   inkscape:export-filename="0000x1kg.png"
   inkscape:export-xdpi="96"
   inkscape:export-ydpi="96"
   xmlns:inkscape="http://www.inkscape.org/namespaces/inkscape"
   xmlns:sodipodi="http://sodipodi.sourceforge.net/DTD/sodipodi-0.dtd"
   xmlns:xlink="http://www.w3.org/1999/xlink"
   xmlns="http://www.w3.org/2000/svg"
   xmlns:svg="http://www.w3.org/2000/svg"><sodipodi:namedview
     id="namedview1"
     pagecolor="#ffffff"
     bordercolor="#000000"
     borderopacity="0.25"
     inkscape:showpageshadow="2"
     inkscape:pageopacity="0.0"
     inkscape:pagecheckerboard="0"
     inkscape:deskcolor="#d1d1d1"
     inkscape:zoom="0.38992806"
     inkscape:cx="474.44649"
     inkscape:cy="1237.4077"
     inkscape:window-width="1920"
     inkscape:window-height="1009"
     inkscape:window-x="-8"
     inkscape:window-y="-8"
     inkscape:window-maximized="1"
     inkscape:current-layer="g1" /><defs
     id="defs1"><clipPath
       clipPathUnits="userSpaceOnUse"
       id="clipPath1"><path
         style="fill:#ff0000;stroke-width:1.00157"
         d="m 121.2566,216.45556 232.11889,-5.44029 119.6863,18.13429 72.53715,12.69401 80.24423,-0.45336 115.6061,2.26678 42.48831,-5.77973 51.60885,-19.48882 173.05827,2.20234 12.8458,13.64789 15.4776,41.6114 -30.2035,47.45116 -22.27587,30.97492 -1.81344,194.03688 -7.25372,219.42489 6.33115,169.66861 3.84686,133.35787 10.25831,185.9318 8.97601,191.0608 7.0526,68.6025 -3.8469,78.2196 29.9452,50.8584 15.4141,36.2686 13.6008,38.9886 0,58.9364 -103.3654,6.3471 -58.02973,0 -131.4736,-15.4141 -70.72371,-15.4142 -66.19015,1.8134 -8.16043,-4.5335 -28.78459,-0.1293 -17.63146,6.732 -12.82288,-3.5263 -25.99223,1.4572 -25.84137,-0.4534 c 0,0 -10.88058,0.453 -12.694,0.4533 -1.81341,3e-4 -16.32085,-2.2668 -16.32085,-2.2668 l -48.05587,-2.2668 -50.32265,-4.0802 c 0,0 -47.09683,0.4245 -48.69969,0.4246 l -41.99493,0 c -1.2823,-3e-4 -20.19603,0.9617 -21.79889,1.2823 -1.60286,0.3205 -9.29644,0.3247 -10.57888,0 -1.28229,-0.3206 -69.56411,11.22 -69.56411,11.22 l -5.25392,-2.9531 -28.10814,2.9469 -44.65569,1.8134 -2.94683,-0.4534 -0.22668,-22.6678 -4.98692,-3.1735 3.85353,-22.6679 19.04101,-20.4011 4.98692,-5.8936 2.04011,-11.5606 12.694,-31.2817 2.26679,-3.6268 14.05407,-27.2015 -6.34699,-79.7908 -1.81344,-32.6417 6.34701,-25.8414 2.26678,-13.1474 -5.89365,-22.2145 3.62687,-48.9625 0.45335,-218.065 -3.1735,-61.6565 -5.09046,-219.30955 -5.12915,-137.84594 -4.48801,-24.36347 -1.28228,-82.06642 3.20573,-11.54059 -9.61717,-32.05719 c 0,0 1.92344,-46.16236 2.56457,-48.72694 0.64115,-2.56457 -11.54059,-50.65037 -11.54059,-50.65037 l 0,-62.8321 -8.33486,-20.5166 4.488,-46.16236 -12.18173,-21.7989 -23.081184,-69.88469 17.952024,-20.5166 5.12915,-19.87545 1.2823,-10.89945 -7.05259,-20.51662 z"
         id="path1"
         sodipodi:nodetypes="ccccccccccccccccccccccccccccccccccccscccssssccccccccccccccccccccccccccccsccccccccccc" /></clipPath><clipPath
       clipPathUnits="userSpaceOnUse"
       id="clipPath2"><path
         style="fill:#ff0000;stroke-width:1.00157"
         d="m 121.2566,216.4556 232.11892,-5.4403 119.6863,18.1343 72.5371,12.694 80.2443,-0.4534 115.6061,2.2668 42.4883,-5.7797 51.6088,-19.4889 173.05828,2.2024 12.8458,13.6479 15.4776,41.6114 -30.2035,47.4511 -22.27588,30.975 -1.8134,194.0368 -7.2537,219.4249 6.3311,169.6686 3.8469,133.3579 10.2583,185.9318 8.97598,191.0608 7.0526,68.6025 -3.8469,78.2196 29.9452,50.8584 15.4141,36.2686 4.5337,33.5483 -9.0672,38.9887 -90.67138,6.3471 -52.5895,-1.8134 -133.287,-2.7201 -68.9103,-0.9068 -66.1901,1.8134 -8.1604,-4.5335 -28.7846,-0.1293 -17.6315,6.732 -12.8229,-3.5263 -25.9922,1.4572 -25.8414,-0.4534 c 0,0 -10.8806,0.453 -12.694,0.4533 -1.8134,3e-4 -16.3208,-2.2668 -16.3208,-2.2668 l -48.0559,-2.2668 -50.3226,-4.0802 c 0,0 -47.0969,0.4245 -48.6997,0.4246 h -41.995 c -1.2823,-3e-4 -20.196,0.9617 -21.7989,1.2823 -1.6028,0.3205 -9.29639,0.3247 -10.57883,0 -1.28229,-0.3206 -69.56411,11.22 -69.56411,11.22 l -5.25392,-2.9531 -28.10814,2.9469 -44.65569,1.8134 -2.94683,-0.4534 -0.22668,-22.6678 -4.98692,-3.1735 3.85353,-22.6679 19.04101,-20.4011 4.98692,-5.8936 2.04011,-11.5606 12.694,-31.2817 2.26679,-3.6268 14.05407,-27.2015 -6.34699,-79.7908 -1.81344,-32.6417 6.34701,-25.8414 2.26678,-13.1474 -5.89365,-22.2145 3.62687,-48.9625 0.45335,-218.065 -3.1735,-61.6565 -5.09046,-219.3096 -5.12915,-137.8459 -4.48801,-24.3635 -1.28228,-82.0664 3.20573,-11.5406 -9.61717,-32.0572 c 0,0 1.92344,-46.1623 2.56457,-48.7269 0.64115,-2.5646 -11.54059,-50.6504 -11.54059,-50.6504 v -62.8321 l -8.33486,-20.5166 4.488,-46.1623 -12.18173,-21.7989 -23.08118,-69.8847 17.95202,-20.5166 5.12915,-19.8755 1.2823,-10.8994 -7.05259,-20.5166 z"
         id="path2"
         sodipodi:nodetypes="ccccccccccccccccccccccccccccccccccccscccssssccccccccccccccccccccccccccccsccccccccccc" /></clipPath></defs><g
     inkscape:groupmode="layer"
     inkscape:label="Image"
     id="g1"><image
       width="1173"
       height="2085"
       preserveAspectRatio="none"
       xlink:href="images/image1.png"
       id="image1-1"
       clip-path="url(#clipPath2)"
       x="36.025444"
       y="-21.103617"
       transform="rotate(1,136.41442,124.78567)" /></g></svg>
